<svg xmlns="http://www.w3.org/2000/svg" style="isolation:isolate" viewBox="0 0 1024 1024">
  <path fill="#131C17" d="m611.584 326.691-6.542-13.624c-.543-1.109-.188-1.582 1.04-1.369 15.939 2.692 31.333 5.407 46.186 8.123 24.203 4.462 48.076 2.998 71.593-4.346 29.02-9.09 53.743-30.908 61.417-60.99 7.249-28.406-6.754-60.519-31.193-76.883-.683-.449-.778-1.393-.211-2.007 22.266-23.849 29.916-54.923 17.898-85.643-8.761-22.408-24.936-37.638-48.477-45.738-33.435-11.5-69.988 1.796-93.812 26.494-12.964 13.412-25.904 28.382-38.843 44.887-4.464 5.691-15.066 17.874-31.854 36.552-.236.26-.448.237-.637-.071-1.111-1.912-2.976-5.076-5.597-9.539-.188-.331-.117-.59.189-.803 15.538-9.988 28.996-21.865 40.354-35.655 19.291-23.399 23.518-52.159 7.178-78.015-5.808-9.187-14.946-17.569-27.391-25.148-5.053-3.094-9.916-3.424-15.536-2.384-8.43 1.557-13.082 6.446-13.932 14.686-1.299 12.396 6.659 18.159 16.341 23.022 9.349 4.699 15.584 13.955 15.937 24.368.851 25.053-29.255 43.589-47.862 54.192-.661.377-1.464.448-2.173.165-15.347-5.879-30.435-5.03-45.241 2.503-.827.424-1.63.424-2.455.023-10.886-5.502-21.039-11.806-30.437-18.938-16.365-12.442-25.856-32.206-14.451-50.742 8.076-13.105 27.745-12.137 29.916-29.894 1.135-9.303-3.99-16.906-13.057-19.197-6.115-1.558-12.302-.259-18.607 3.896-18.724 12.374-32.301 29.209-36.694 51.688-6.918 35.348 22.833 67.296 50.862 84.108 1.723 1.04 3.448 2.125 5.195 3.235.967.615 1.346 1.819.921 2.881l-4.062 10.012c-.495 1.251-1.251 1.417-2.267.519-17.615-15.585-34.355-32.207-52.35-47.248-28.995-24.275-59.242-40.331-97.826-24.51-13.6 5.573-24.651 15.702-33.175 30.413-9.682 16.74-9.917 40.99-1.701 58.299 1.984 4.179 4.275 8.241 6.848 12.208.66 1.015.52 1.889-.449 2.667-17.874 14.334-27.556 31.878-29.044 52.656-1.392 19.74 4.889 36.577 18.23 51.807 25.572 29.138 68.666 37.402 105.571 31.664 14.286-2.218 28.69-4.793 43.259-7.722 1.04-.211 1.936.71 1.676 1.725-.778 3.235-2.361 6.045-4.699 8.477"/>
  <path fill="#FDFFFE" d="M734.511 100.318c-3.778 10.083-9.517 17.662-17.214 22.692-5.785 3.801-11.429 7.366-16.93 10.743-6.872 4.227-17.662 9.728-32.373 16.529-11.782 5.455-22.88 11.05-33.317 16.835-15.112 8.36-30.508 17.002-46.21 23.614-6.966 2.927-13.341 7.484-19.102 13.671-.543.59-1.204.756-1.984.496-1.44-.496-2.763-1.275-3.967-2.337 13.293-16.387 29.445-33.719 41.417-47.698 13.837-16.151 26.493-30.696 37.992-43.613 17.072-19.196 43.589-38.511 70.531-28.618 9.469 3.472 16.529 9.375 21.157 17.686Z"/>
  <path fill="#EFE9D1" d="M734.511 100.318c4.51 8.289 6.068 16.34 4.675 24.204-4.132 23.021-20.519 35.466-41.132 43.706-40.544 16.221-85.951 35.679-130.815 53.151-.685.261-1.464.19-2.078-.211l-11.287-7.391c-.661-.426-.732-1.37-.164-1.913l9.704-9.303c1.204 1.062 2.527 1.841 3.967 2.337.78.26 1.441.094 1.984-.496 5.761-6.187 12.136-10.744 19.102-13.671 15.702-6.612 31.098-15.254 46.21-23.614 10.437-5.785 21.535-11.38 33.317-16.835 14.711-6.801 25.501-12.302 32.373-16.529 5.501-3.377 11.145-6.942 16.93-10.743 7.697-5.03 13.436-12.609 17.214-22.692Z"/>
  <path fill="#FDFFFE" d="M423.722 185.442c-3.566 3.187-8.005 1.747-13.365-4.322-3.14-3.565-6.328-6.186-10.531-7.556-17.26-5.596-34.71-11.145-52.325-16.599-7.817-2.432-15.207-4.416-22.126-5.975-7.438-1.677-14.804-3.966-22.077-6.824-1.582-.614-3.329-1.086-5.242-1.392-1.865-.284-3.637-.732-5.313-1.322 5.43-21.134 26.328-28.029 45.832-23.046 10.035 2.572 20.448 8.524 31.263 17.873 17.828 15.444 35.796 31.831 53.884 49.163Z"/>
  <path fill="#EFE9D1" d="M292.743 141.452c1.676.59 3.448 1.038 5.313 1.322 1.913.306 3.66.778 5.242 1.392 7.273 2.858 14.639 5.147 22.077 6.824 6.919 1.559 14.309 3.543 22.126 5.975 17.615 5.454 35.065 11.003 52.325 16.599 4.203 1.37 7.391 3.991 10.531 7.556 5.36 6.069 9.799 7.509 13.365 4.322l26.658 23.778c.497.448.426 1.227-.117 1.581-.473.307-1.111.307-1.936 0-25.904-9.941-52.776-19.055-80.614-27.343-18.276-5.455-34.71-9.114-49.327-10.933-5.855-.731-9.421-.589-14.498-4.581-8.478-6.705-12.183-15.537-11.145-26.492Z"/>
  <path fill="#F9AD1B" d="M478.881 165.82c-.212 2.029-.095 3.967.378 5.808.166.685.614 1.086 1.299 1.228l8.24 1.581c1.016.213 2.078-.211 2.692-1.038 1.96-2.621 4.912-2.503 6.848-5.384 1.723-2.55 2.456-5.266 2.219-8.169-.213-2.479-1.51-4.322-3.896-5.573-1.96-1.015-4.344-1.7-7.202-2.055 9.681-5.856 22.622-4.982 31.854 2.149 8.359 6.446 12.018 16.695 9.304 26.139-.756 2.645-1.984 5.125-3.637 7.367-9.421 12.681-29.374 13.648-41.275 2.007-6.659-6.517-9.256-15.654-6.824-24.06Z"/>
  <path fill="#FCBF35" d="M489.459 152.218c2.858.355 5.242 1.04 7.202 2.055 2.386 1.251 3.683 3.094 3.896 5.573.237 2.903-.496 5.619-2.219 8.169-1.936 2.881-4.888 2.763-6.848 5.384-.614.827-1.676 1.251-2.692 1.038l-8.24-1.581c-.685-.142-1.133-.543-1.299-1.228-.473-1.841-.59-3.779-.378-5.808 1.63-5.621 5.384-10.438 10.578-13.602Z"/>
  <path fill="#FDFFFE" d="M746.86 223.197c-3.211 9.187-9.067 14.877-17.568 17.072-30.602 7.839-55.584 8.171-90.979 7.981-7.249-.047-14.167.497-21.299.709-2.219.071-5.171.779-8.83 2.078-4.086 1.488-8.1 1.653-12.067.497 25.904-12.161 51.641-23.802 77.166-34.876 12.61-5.455 22.03-9.21 28.288-11.265 17.285-5.643 36.34 1.206 45.289 17.804ZM432.364 254.343c-7.438-2.197-15.088-3.401-22.998-3.636-15.491-.497-30.767-.78-46.187-2.433-17.945-1.936-34.38-3.164-49.326-3.683-8.17-.308-18.891.284-32.184 1.772-.756.069-1.488.353-2.125.778-1.275.874-2.479 1.393-3.59 1.559-2.763-18.773 14.356-33.058 31.453-35.324 20.968-2.812 43.542 3.211 64.06 9.586 22.598 6.989 43.471 14.593 62.668 22.786.756.331 1.109.897 1.062 1.724-.164 2.408-1.109 4.698-2.833 6.871Z"/>
  <path fill="#EFE9D1" d="M746.86 223.197c3.542 10.367 3.047 20.237-1.512 29.563-8.735 17.946-29.845 26.683-49.019 27.982-28.453 1.89-58.18-2.102-89.138-11.996-6.657-2.124-13.199-5.194-19.645-9.185-1.228-.756-1.299-2.503-.166-3.377 2.905-2.219 5.81-3.777 8.737-4.65 3.967 1.156 7.981.991 12.067-.497 3.659-1.299 6.611-2.007 8.83-2.078 7.132-.212 14.05-.756 21.299-.709 35.395.19 60.377-.142 90.979-7.981 8.501-2.195 14.357-7.885 17.568-17.072Z"/>
  <path fill="#131C17" d="M482.428 1023.693q-2.987-19.292-3.602-27.278Q348.954 1003.534 334 902q-106.256-12.628-84.216-103.93c-81.856-50.767-40.536-119.243-12.594-130.656-35.419-16.529 5.511-125.935 40.141-106.256-29.122-79.497 37.781-108.619 64.149-100.747 4.288-43.491 31.562-107.74 60.211-129.871q-16.529-11.806 210.152-4.721 55.49 82.053 62.18 132.23 87.761 30.106 60.606 101.534 77.922 37.781 43.289 108.618c22.827 6.298 75.955 99.172-12.593 129.082 22.432 71.625-35.419 97.599-87.366 102.322-3.148 21.25-11.806 89.728-140.889 98.385q-4.095 11.822-6.284 25.703h-48.358Z"/>
  <path fill="#EFE9D1" d="m432.364 254.343-8.17 20.566c-.283.733-.803 1.157-1.581 1.275-25.904 4.321-48.973 7.344-69.233 9.067-15.514 1.299-30.296.119-44.297-3.564-13.908-3.637-31.546-17.096-33.129-32.987 1.111-.166 2.315-.685 3.59-1.559.637-.425 1.369-.709 2.125-.778 13.293-1.488 24.014-2.08 32.184-1.772 14.946.519 31.381 1.747 49.326 3.683 15.42 1.653 30.696 1.936 46.187 2.433 7.91.235 15.56 1.439 22.998 3.636Z"/>
  <path fill="#E78C0B" d="M472.553 257.956c-3.282 12.704-3.023 25.077.756 37.118 4.085 13.105 9.917 28.171 19.079 37.733 15.205 15.915 37.307.19 45.17-14.663 7.981-15.112 13.176-32.35 15.56-51.711 5.644 16.693 6.069 32.916 1.277 48.665-2.528 8.264-6.187 15.986-10.981 23.164-11.712 17.473-33.672 26.021-52.561 14.734-17.451-10.437-27.485-34.876-29.776-54.332-1.723-14.757 2.102-28.312 11.476-40.708Z"/>
  <path fill="#EFE9D1" d="M516.732 259.136c-3.848 5.384-8.358 8.643-13.578 9.752-19.314 4.133-17.638-32.892 10.154-24.084 3.188 1.015 5.007 3.47 5.43 7.366.26 2.409-.401 4.723-2.006 6.966Z"/>
  <path fill="#F9AD1B" d="M553.118 266.433c-2.384 19.361-7.579 36.599-15.56 51.711-7.863 14.853-29.965 30.578-45.17 14.663-9.162-9.562-14.994-24.628-19.079-37.733-3.779-12.041-4.038-24.414-.756-37.118 9.493-15.041 23.447-22.408 41.888-22.102 12.256.213 22.031 4.675 29.375 13.389 4.321 5.123 7.415 10.861 9.302 17.19Zm-34.38-14.263c-.423-3.896-2.242-6.351-5.43-7.366-27.792-8.808-29.468 28.217-10.154 24.084 5.22-1.109 9.73-4.368 13.578-9.752 1.605-2.243 2.266-4.557 2.006-6.966ZM935.784 670.671c-7.31 31.522-30.224 35.089-42.313 81.029-12.09 45.94-34.284 271.984-36.269 271.984q-326.44.614-326.416 0v-24.179q.024-.754 0-12.09 41.18 5.644 60.448 0c41.936-12.302 78.813-42.719 85.069-87.487.262-1.772 1.748-3.071 3.519-3.118 20.52-.519 39.48-6.233 56.835-17.118 14.97-9.375 24.674-23.92 29.515-40.023 4.038-13.482 3.614-27.013-1.298-40.614-.213-.59.071-1.251.637-1.535 30.011-14.568 48.901-45.382 44.486-79.196-2.503-19.008-15.23-38.557-30.649-49.371-1.417-.993-1.912-2.883-1.158-4.464 8.903-18.299 10.815-35.583 5.739-51.853-7.391-23.73-24.911-40.612-47.296-50.648-1.251-.566-1.841-1.983-1.393-3.258 16.6-46.965-13.034-88.877-59.573-98.37-1.417-.282-2.526-1.392-2.787-2.809-6.658-35.3-25.596-61.25-56.811-77.826-1.89-1.015-2.881-3.164-2.384-5.266 1.157-4.982 1.982-9.799 2.479-14.403.637-6.093-.874-17.213-4.581-33.365 16.032 1.867 32.443 5.834 49.256 11.949 32.986 11.97 62.997 25.406 90.079 40.305 18.017 9.918 35.514 22.551 52.302 34.687C851.515 450 960.606 563.636 935.784 670.671ZM748.906 424.218c1.872-7.539-2.898-15.19-10.646-17.133-7.765-1.93-15.557 2.604-17.442 10.129-1.871 7.539 2.899 15.191 10.647 17.133 7.765 1.93 15.557-2.605 17.441-10.129Zm64.916 50.569c0-7.839-6.353-14.19-14.191-14.19-7.839 0-14.192 6.351-14.192 14.19 0 7.841 6.353 14.192 14.192 14.192 7.838 0 14.191-6.351 14.191-14.192Zm-20.536 56.137c-3.337-6.384-11.411-8.793-18.029-5.333-6.629 3.459-9.296 11.439-5.974 17.829 3.335 6.385 11.411 8.793 18.032 5.334 6.626-3.459 9.293-11.44 5.971-17.83Zm-7.657 381.343c1.488-7.287-3.543-14.441-11.203-16.014-7.663-1.567-15.078 3.083-16.562 10.366-1.491 7.286 3.538 14.441 11.198 16.015 7.665 1.566 15.08-3.086 16.567-10.367Zm-27.839 47.968c.849-7.275-4.581-13.887-12.148-14.764-7.568-.893-14.393 4.278-15.242 11.548-.85 7.275 4.581 13.887 12.151 14.766 7.564.891 14.389-4.28 15.239-11.55Zm54.107.829c.32-7.135-5.537-13.18-13.071-13.499-7.531-.319-13.882 5.183-14.198 12.309-.322 7.136 5.534 13.181 13.068 13.5 7.531.318 13.882-5.184 14.201-12.31ZM402.124 327.495c-3.405 16.625-3.831 33.251-1.253 49.853.118.757-.142 1.326-.804 1.728-30.603 17.572-51.226 44.415-56.239 79.344-.167 1.018-.947 1.799-1.939 1.939-32.615 4.968-57.022 23.132-65.772 54.065-2.104 7.497-2.625 16.556-1.537 27.15.733 7.118 2.767 13.102 4.659 19.678.26.921-.071 1.512-.97 1.796-8.229 2.626-15.727 6.717-22.49 12.298-19.134 15.822-28.12 36.255-26.914 61.301.496 10.548 4.256 20.622 8.158 30.225.238.567.071 1.229-.424 1.631-20.127 16.131-31.456 33.985-31.834 60.804-.377 26.512 19.416 57.352 44.793 67.309.993.378 1.537 1.49 1.182 2.507-7.354 22.208-4.706 42.641 7.995 61.348 17.713 26.086 45.904 36.138 76.744 36.278 2.128.024 3.902 1.561 4.209 3.667 6.67 47.015 38.177 76.466 82.827 88.053q18.541 4.826 60.544 0v36.326L156.5 1023.7c-1.301 0-23.6-226.55-36.3-272-12.7-45.45-36.2-49.2-42.3-81-21.234-110.698 91.797-226.761 132.6-257.1 23.083-19.96 25.688-19.99 52.2-34.7 36.942-20.528 48.523-28.333 89.2-40.3 6.978-2.058 38.328-10.041 50.224-11.105ZM216.035 472.869c.295-7.117-5.499-13.123-12.929-13.443-7.446-.319-13.714 5.191-14.009 12.313-.296 7.116 5.499 13.122 12.93 13.442 7.445.32 13.712-5.191 14.008-12.312Zm46.171 11.262c5.16-4.993 5.113-13.435-.122-18.854-5.241-5.413-13.661-5.768-18.835-.781-5.16 4.994-5.113 13.436.122 18.854 5.241 5.413 13.661 5.769 18.835.781Zm-22.298 50.893c0-7.522-6.101-13.623-13.621-13.623-7.521 0-13.623 6.101-13.623 13.623 0 7.52 6.102 13.622 13.623 13.622 7.52 0 13.621-6.102 13.621-13.622Zm-1.772 365.392c0-7.332-5.961-13.291-13.293-13.291-7.331 0-13.29 5.959-13.29 13.291 0 7.331 5.959 13.29 13.29 13.29 7.332 0 13.293-5.959 13.293-13.29Zm41.103 28.001c0-7.26-5.865-13.125-13.126-13.125-7.26 0-13.126 5.865-13.126 13.125 0 7.261 5.866 13.126 13.126 13.126 7.261 0 13.126-5.865 13.126-13.126Zm-46.827 39.212c0-7.238-5.865-13.102-13.102-13.102s-13.103 5.864-13.103 13.102c0 7.236 5.866 13.102 13.103 13.102s13.102-5.866 13.102-13.102Zm50.776 20.906c0-7.427-6.03-13.457-13.457-13.457-7.425 0-13.456 6.03-13.456 13.457 0 7.427 6.031 13.457 13.456 13.457 7.427 0 13.457-6.03 13.457-13.457Z"/>
  <path fill="#FDFFFE" d="m433.592 361.662 1.865-22.125c.095-1.204 1.701-1.511 2.268-.448l10.271 19.669c.377.709-.024 1.583-.827 1.723l-12.16 2.456c-.779.165-1.488-.472-1.417-1.275ZM568.467 359.396l8.95-18.986c.495-.991 1.982-.756 2.1.355l2.315 20.873c.071.732-.568 1.322-1.299 1.204l-11.263-1.889c-.708-.118-1.133-.896-.803-1.557Z"/>
  <path fill="#E78C0B" d="M903.212 524.939C909.374 538.044 921.253 554.518 923 568c-.685-.284-12.989 4.093-14.475 6.974-14.121 27.272-24.936 55.678-32.468 85.217-.189.803-1.229 1.016-1.724.355-3.046-4.18-4.769-8.406-5.124-12.657-.448-7.91-1.252-15.631-2.408-23.188-.732-4.721-.661-8.784.259-12.183 2.102-7.863 4.817-15.538 8.147-22.999 8.524-19.033 17.851-37.19 25.124-56.577.448-1.156.637-2.526.566-4.084-.165-3.236.614-4.533 2.315-3.919ZM112.189 527.02c2.337-.377 3.872.448 4.581 2.503 5.974 17.45 13.01 33.01 21.157 46.634 4.675 7.816 7.792 13.342 9.327 16.6 4.202 8.808 6.399 14.782 6.588 17.922.495 8.005 1.18 16.317 2.102 24.935l-9.564 31.051c-.779 2.55-1.464 2.526-2.054-.095-4.605-20.496-10.674-41.157-18.229-62.005C121.587 592.12 106.673 580.913 96 562c1.37-9.564 11.632-24.212 16.189-34.98Z"/>
  <path fill="#FCBF35" d="M605.35 901.492c-2.244 2.433-4.084 4.96-5.55 7.557-2.029 3.613-3.776 6.163-5.218 7.604-10.082 10.058-23.871 13.695-39.031 13.884-25.431.306-51.523.543-78.324.685-6.776.046-13.788-.166-21.015-.661-18.039-1.229-36.741-3.566-49.161-11.666-5.69-3.706-11.334-7.934-16.906-12.68-.779-.636-1.747-1.015-2.763-1.038l-3.353-.119c-.543-1.133-.756-2.054-.614-2.785.189-.992 1.062-1.701 2.078-1.701l219.857.92Z"/>
  <path fill="#E78C0B" d="m605.35 901.492 23.92.237c2.597.025 3.612 1.3 3.045 3.826-3.258 14.473-11.782 25.359-25.548 32.632-17.449 9.185-37.049 14.356-58.82 15.467-19.951 1.015-44.296 1.228-72.986.614-20.283-.426-38.535-3.945-54.781-10.58-15.041-6.115-35.632-21.227-36.151-38.63l3.353.119c1.016.023 1.984.402 2.763 1.038 5.572 4.746 11.216 8.974 16.906 12.68 12.42 8.1 31.122 10.437 49.161 11.666 7.227.495 14.239.707 21.015.661 26.801-.142 52.893-.379 78.324-.685 15.16-.189 28.949-3.826 39.031-13.884 1.442-1.441 3.189-3.991 5.218-7.604 1.466-2.597 3.306-5.124 5.55-7.557ZM722.776 800.62c6.611 7.674 8.476 16.151 5.62 25.431-6.258 20.189-24.534 24.675-43.944 24.604-61.841-.189-125.194-.402-190.057-.661-52.373-.189-104.793.401-157.048.379-14.735 0-25.217-1.3-31.428-3.897-11.429-4.747-18.394-13.956-20.873-27.627l3.541-2.266c.59-.379 1.37-.284 1.843.211 7.792 8.005 18.11 11.996 30.955 11.925 24.06-.118 47.107-.166 69.09-.095 92.065.26 184.745.213 278.038-.118 12.515-.046 29.21 1.346 39.34-5.477 7.154-4.818 12.112-12.28 14.923-22.409Z"/>
  <path fill="#FCBF35" d="M722.776 800.62c-2.811 10.129-7.769 17.591-14.923 22.409-10.13 6.823-26.825 5.431-39.34 5.477-93.293.331-185.973.378-278.038.118-21.983-.071-45.03-.023-69.09.095-12.845.071-23.163-3.92-30.955-11.925-.473-.495-1.253-.59-1.843-.211l-3.541 2.266c.401-8.382 3.022-14.522 7.839-18.394 3.046-2.456 7.887-3.754 14.497-3.873 13.106-.236 26.258-.307 39.409-.236 73.884.497 149.445.519 226.705.071 56.553-.308 103.377-.188 140.473.402 3.517.071 6.468 1.321 8.807 3.801Z"/>
  <path fill="#E78C0B" d="M770.45 721.187c1.676 8.241-.379 15.49-6.116 21.7-4.18 4.511-10.13 6.801-17.899 6.824-158.984.732-317.99.874-476.974.401-14.852-.022-23.589-7.814-26.21-23.352 4.18-.306 8.382-.095 12.657.614 5.832.991 9.988 1.511 12.467 1.559 10.46.211 20.684.353 30.625.377 148.358.519 296.693.377 445.027-.425 5.124-.023 11.027-.615 17.733-1.748 4.958-.825 7.863-2.809 8.69-5.95Z"/>
  <path fill="#FCBF35" d="M770.45 721.187c-.827 3.141-3.732 5.125-8.69 5.95-6.706 1.133-12.609 1.725-17.733 1.748-148.334.802-296.669.944-445.027.425-9.941-.024-20.165-.166-30.625-.377-2.479-.048-6.635-.568-12.467-1.559-4.275-.709-8.477-.92-12.657-.614-.331-4.322.778-8.855 3.306-13.602 6.187-11.546 13.86-15.536 27.556-15.631 156.598-1.18 313.267-.424 469.867-.164 14.427.022 23.235 7.956 26.47 23.824Z"/>
  <path fill="#E78C0B" d="M747.262 625.439c1.275 13.175-5.786 25.666-19.505 25.595-144.366-.708-289.395-.732-435.061-.071-14.168.071-24.062-6.21-25.1-21.605 4.557-1.44 9.327-2.031 14.356-1.748 3.4.166 6.493.284 9.303.308 37.473.26 74.97-.591 111.616-.308 68.761.568 136.836.59 204.249.047 39.198-.306 81.842.567 119.834-.164 5.597-.118 12.35-.803 20.308-2.054Z"/>
  <path fill="#FCBF35" d="M747.262 625.439c-7.958 1.251-14.711 1.936-20.308 2.054-37.992.731-80.636-.142-119.834.164-67.413.543-135.488.521-204.249-.047-36.646-.283-74.143.568-111.616.308-2.81-.024-5.903-.142-9.303-.308-5.029-.283-9.799.308-14.356 1.748.211-18.157 15.041-31.145 32.562-31.901 6.8-.306 20.968-.401 42.502-.306 115.772.495 229.703.401 341.792-.237 23.046-.118 57.213-2.597 62.81 28.525Z"/>
  <path fill="#E78C0B" d="M701.901 527.186c.781 7.037-1.015 13.2-5.383 18.513-.495.637-1.134 1.038-1.912 1.251-2.739.732-5.526 1.111-8.382 1.086-71.618-.283-143.258.378-214.875-.212-69.941-.566-115.985-.402-138.133.496-14.5.566-21.63-6.47-21.418-21.086l390.103-.048Z"/>
  <path fill="#FCBF35" d="m701.901 527.186-390.103.048c3.494-15.915 13.2-25.833 29.115-29.752 4.179-1.015 14.191-1.536 30.082-1.512 83.612.118 163.518.142 239.668.024 11.569-.024 23.541.071 35.939.284 15.795.235 26.587 1.606 32.419 4.107 11.121 4.748 18.749 13.696 22.88 26.801Z"/>
  <path fill="#E78C0B" d="M602.281 415.877c12.041 6.54 20.707 17.142 25.996 31.852.237.685-.259 1.395-.967 1.395-5.455.022-11.003.093-16.647.164-65.289.921-132.584 1.228-201.887.874-6.73-.023-13.294-.142-19.647-.355-1.133-.047-1.911-1.109-1.605-2.195 1.322-4.652 3.424-8.666 6.328-12.043-.212.379-.188.733.094 1.086.45.543.898.543 1.394.049 3.659-3.945 8.028-5.905 13.057-5.905 54.097.048 109.94.071 167.556.095 4.367 0 8.666-.991 12.844-2.976 3.33-1.581 7.841-5.595 13.484-12.041Z"/>
  <path fill="#FCBF35" d="M602.281 415.877c-5.643 6.446-10.154 10.46-13.484 12.041-4.178 1.985-8.477 2.976-12.844 2.976-57.616-.024-113.459-.047-167.556-.095-5.029 0-9.398 1.96-13.057 5.905-.496.494-.944.494-1.394-.049-.282-.353-.306-.707-.094-1.086 20-26.304 47.273-35.347 79.22-35.89 19.764-.355 39.22-.568 58.37-.615 25.031-.095 49.02 2.646 70.839 16.813Z"/>
  <path fill="#131C17" d="M811.901 961.072c-.319 7.126-6.67 12.628-14.201 12.31-7.535-.319-13.391-6.364-13.068-13.5.316-7.126 6.667-12.628 14.198-12.309 7.534.319 13.39 6.364 13.071 13.499Z"/>
  <g fill="#131C17">
    <path d="M237.891 899.51c0 7.32-5.951 13.269-13.271 13.269-7.32 0-13.27-5.949-13.27-13.269s5.95-13.27 13.27-13.27c7.32 0 13.271 5.95 13.271 13.27ZM785.633 912.275c-1.488 7.281-8.903 11.933-16.568 10.366-7.66-1.573-12.689-8.729-11.198-16.015 1.484-7.282 8.899-11.933 16.563-10.366 7.66 1.573 12.691 8.727 11.203 16.015ZM279.2 928.4c0 7.249-6.126 13.1-13.375 13.1s-13.105-6.784-13.105-14.033 5.856-13.105 13.105-13.105c7.249 0 13.375 6.789 13.375 14.038ZM757.793 960.243c-.85 7.27-7.675 12.441-15.24 11.55-7.569-.879-13-7.491-12.151-14.766.85-7.27 7.675-12.441 15.243-11.548 7.566.877 12.997 7.489 12.148 14.764ZM232.177 966.617c0 7.225-5.856 13.081-13.081 13.081-7.227 0-13.083-5.856-13.083-13.081 0-7.226 5.856-13.081 13.083-13.081 7.225 0 13.081 5.855 13.081 13.081ZM282.873 987.49c0 7.415-6.021 14.51-13.436 14.51-7.413 0-13.436-7.095-13.436-14.51s6.023-13.436 13.436-13.436c7.415 0 13.436 6.021 13.436 13.436ZM239.661 534.696c0 7.508-6.091 13.6-13.6 13.6-7.508 0-13.602-6.092-13.602-13.6 0-7.51 6.094-13.602 13.602-13.602 7.509 0 13.6 6.092 13.6 13.602ZM793.29 530.927c3.322 6.39.654 14.371-5.971 17.83-6.622 3.459-14.698 1.051-18.033-5.334-3.322-6.39-.655-14.371 5.974-17.83 6.618-3.459 14.693-1.051 18.03 5.334ZM261.924 483.884c-5.167 4.979-13.573 4.624-18.805-.78-5.228-5.41-5.275-13.839-.123-18.825 5.167-4.979 13.573-4.624 18.805.78 5.228 5.41 5.275 13.839.123 18.825ZM813.826 474.789c0 7.841-6.353 14.192-14.192 14.192s-14.192-6.351-14.192-14.192c0-7.839 6.353-14.19 14.192-14.19s14.192 6.351 14.192 14.19ZM215.825 472.639c-.295 7.11-6.552 12.612-13.985 12.293-7.42-.32-13.205-6.316-12.91-13.422.295-7.11 6.552-12.611 13.987-12.292 7.418.319 13.203 6.315 12.908 13.421ZM748.909 424.219c-1.884 7.525-9.676 12.059-17.441 10.129-7.749-1.942-12.519-9.594-10.647-17.133 1.884-7.525 9.676-12.059 17.441-10.129 7.749 1.944 12.519 9.594 10.647 17.133Z"/>
  </g>
</svg>
